PathFileType	4	(X/Y/Z)	/Users/visionmauri/1_1_1_f_Sports2D/1_1_1_f_Sports2D_px_person00.trc
DataRate	CameraRate	NumFrames	NumMarkers	Units	OrigDataRate	OrigDataStartFrame	OrigNumFrames
30.0	30.0	11	22	m	30.0	89	358
Frame#	Time	Hip			RHip			RKnee			RAnkle			RBigToe			RSmallToe			RHeel			LHip			LKnee			LAnkle			LBigToe			LSmallToe			LHeel			Neck			Head			Nose			RShoulder			RElbow			RWrist			LShoulder			LElbow			LWrist			
		X1	Y1	Z1	X2	Y2	Z2	X3	Y3	Z3	X4	Y4	Z4	X5	Y5	Z5	X6	Y6	Z6	X7	Y7	Z7	X8	Y8	Z8	X9	Y9	Z9	X10	Y10	Z10	X11	Y11	Z11	X12	Y12	Z12	X13	Y13	Z13	X14	Y14	Z14	X15	Y15	Z15	X16	Y16	Z16	X17	Y17	Z17	X18	Y18	Z18	X19	Y19	Z19	X20	Y20	Z20	X21	Y21	Z21	X22	Y22	Z22
89	2.9749766573295986	545.9125521558459	926.459856077502	0.0	605.8071764761003	931.2261278455329	0.0	605.8896804873631	1177.0562645912873	0.0	595.1329758247343	1383.320275070637	0.0	570.3765598360087	1416.9758365667217	0.0	608.71281290659	1426.2131725052018	0.0	589.3408525994541	1419.3356872294203	0.0	489.41538855348574	930.6612188529932	0.0	485.16532121129643	1141.2167635318667	0.0	491.6644634478003	1156.8302842732044	0.0	508.7373959224439	1177.5996030151196	0.0	468.8353087087592	1196.9371060659287	0.0	498.6652706893137	1152.242856296512	0.0	535.8947352752209	615.2518493905468	0.0	543.5768950963612	482.06570911226146	0.0	543.3125950860663	557.0974320100465	0.0	642.9950692477594	657.3637281844584	0.0	704.7197070260997	800.8373239245151	0.0	743.2071483148504	943.0269474192855	0.0	424.8533126417097	666.3860115330585	0.0	380.79286111669074	823.120935126745	0.0	386.27560865202736	845.1916811619892	0.0
90	3.008403361344538	546.577704008613	925.0119360624082	0.0	606.0655677561415	930.5558634989053	0.0	604.0307828740076	1177.6958468800863	0.0	591.6397877258955	1380.8806268523174	0.0	566.8346204676344	1414.7480325454515	0.0	605.4784002791941	1425.4663128136995	0.0	587.2476281509126	1415.5666888949909	0.0	489.6400289734096	929.3368793363235	0.0	485.8320945657933	1138.562231228732	0.0	493.2808649219312	1156.3104300972184	0.0	508.087676324512	1177.9120792645656	0.0	470.99421479222724	1196.3512897627459	0.0	500.2554063989858	1156.8967820529263	0.0	537.6824522133046	616.5346524715859	0.0	544.9026007880609	485.9626475404009	0.0	544.9959217448286	559.4117040622691	0.0	643.8054074687416	660.1883827983438	0.0	706.2214964365547	801.5079950615603	0.0	744.5415586900484	942.3731858572379	0.0	426.20665292651387	667.291415269789	0.0	383.09647724668736	823.715365299921	0.0	388.57125038162604	846.0374381731959	0.0
91	3.041830065359477	546.4941731714539	924.2590336173625	0.0	606.2074161334344	929.6993971883029	0.0	601.7922589895173	1177.719121857583	0.0	587.8067081651409	1381.155489834969	0.0	566.7081208443545	1413.4008034234844	0.0	604.8427794309123	1425.4667029717757	0.0	583.0037775937394	1414.6661583617085	0.0	489.49931435846275	928.332051473204	0.0	486.8219104085051	1138.32370723173	0.0	494.77968618945476	1156.909117201316	0.0	506.2258832331173	1178.2026624646048	0.0	472.3516759460658	1197.3074419941781	0.0	501.9828327887683	1157.379203818508	0.0	538.804386287405	617.1634855819337	0.0	546.3564375179058	489.8867598958443	0.0	546.4641344315046	562.6603350315685	0.0	643.5057402281568	662.7418538285497	0.0	708.3536953826007	801.3613763014863	0.0	745.9889436880751	942.5878638173797	0.0	428.2388431531842	668.6460713302862	0.0	385.79782967808	825.2254652403706	0.0	392.09510437667603	847.0933474763925	0.0
92	3.075256769374416	545.8337609658524	924.4401262899082	0.0	606.1635123218582	929.15397436459	0.0	600.0595463495154	1177.9632213269529	0.0	584.9385992726257	1383.1015028668821	0.0	569.0865570810628	1411.9291747429863	0.0	605.8146530930885	1424.9076870602194	0.0	578.9352430155996	1415.451459840254	0.0	489.37871162532167	927.4731702175075	0.0	487.47005414616007	1139.641887065756	0.0	495.34058941157144	1155.4793382804157	0.0	504.7569122213117	1179.1086937436357	0.0	473.0267968664082	1199.979830578171	0.0	503.3294187023139	1148.5871126182692	0.0	539.8893881628801	618.1263093571033	0.0	548.1612693818422	493.1030077109055	0.0	547.5238405451795	565.4194803026929	0.0	643.0515829010366	664.65867962014	0.0	710.1720546367005	799.399404735439	0.0	747.5983699985903	942.0868741824593	0.0	431.44727061633523	669.7577812927921	0.0	388.6295534216588	825.5131374321361	0.0	396.1329133038475	846.8502854769049	0.0
93	3.108683473389356	546.0749209793937	924.9962650749326	0.0	606.1204067656014	929.184397009838	0.0	599.6611083007012	1178.4604982099686	0.0	584.0601694710433	1384.6427347072881	0.0	571.7864629151588	1410.167199537943	0.0	607.0360307483387	1424.0222376924944	0.0	578.1650514808478	1416.265235293339	0.0	490.0950682786542	927.1048019296412	0.0	487.54187475039254	1140.522478968715	0.0	495.50360738247144	1151.8127874917443	0.0	504.37754143115666	1178.6518621982295	0.0	473.51014343879456	1200.152184477633	0.0	503.60403320753807	1135.0488990675824	0.0	541.9574760991329	620.1233198599477	0.0	550.3598709170009	495.3519148540933	0.0	548.4925938917029	566.5374519199876	0.0	643.1817728604888	666.4217574512811	0.0	711.3698075032308	795.7005773745003	0.0	749.0973864716636	938.6918243252085	0.0	435.3916979588369	670.0486721735897	0.0	391.07785047256857	822.8620529479075	0.0	399.1714972534439	843.6345181968808	0.0
94	3.142110177404295	547.7591701705616	925.4790826792403	0.0	605.9892926961583	929.4445651644855	0.0	600.2441931566964	1178.8606014351128	0.0	584.7065146503639	1384.9318732909292	0.0	572.5879247015383	1410.0454682787445	0.0	607.0861953175973	1424.1191353201493	0.0	579.808015229292	1416.8453370102736	0.0	491.66183479596725	927.4744863491842	0.0	487.6584882012899	1140.2688023644087	0.0	496.27385612147765	1146.6598249231772	0.0	503.9774626020716	1175.0095766283375	0.0	473.9098176410666	1196.5432735935992	0.0	503.3112152559429	1124.9055696548833	0.0	544.9224939442406	622.6020650299522	0.0	552.728353291987	497.26414183730196	0.0	549.9193718017841	567.644326763204	0.0	643.9122293573754	668.4070586435652	0.0	712.9714101640849	791.366590917044	0.0	749.9669226348435	932.8613500688706	0.0	439.16893169499133	669.8544956396703	0.0	392.8575283482301	819.5647604988543	0.0	400.3892036041546	837.5537951266053	0.0
95	3.175536881419234	549.3756013644874	925.5168806849529	0.0	605.6808221494537	929.1396289129619	0.0	600.8598530636119	1178.7983258927925	0.0	585.6889130184685	1384.7097315008066	0.0	571.2414871006365	1412.456027532217	0.0	605.3799955273474	1425.063405875833	0.0	581.1345607752456	1417.7939346203402	0.0	493.07071435902213	927.3613871307996	0.0	488.7194217421391	1138.636457335479	0.0	497.40203405021384	1139.485364485403	0.0	502.60669745479737	1170.8917660558577	0.0	473.77924639244173	1194.6383606518843	0.0	503.09543402120386	1121.0096624843986	0.0	547.7272455129622	624.223381198456	0.0	555.4724444095823	499.79624632000434	0.0	552.3189468213216	570.3718606533163	0.0	644.57492672445	670.0449061453844	0.0	715.4267408941887	787.461231553227	0.0	750.1878637750154	927.651250930085	0.0	442.46692789349026	669.5196178660267	0.0	394.36260332456897	818.4283983338798	0.0	400.40057902879886	832.1634935650903	0.0
96	3.208963585434174	550.0533427019507	924.809135846303	0.0	605.6168422589591	928.136198796578	0.0	601.1274799589418	1178.0600430543786	0.0	586.1653678047434	1384.5782387231525	0.0	569.8499910717336	1415.886313233776	0.0	603.8949576169555	1425.7883197220908	0.0	581.2916663441508	1418.8868139134117	0.0	494.07604503650987	925.7732028895127	0.0	490.79857259443895	1134.6347586871384	0.0	498.0286812431357	1131.53656296844	0.0	501.1533277923864	1175.3332815729327	0.0	473.257190405008	1197.2007875762245	0.0	503.5306874526119	1120.429492016153	0.0	549.9532036253291	624.748681582699	0.0	558.9417065544466	503.1848352944881	0.0	555.8412725444969	573.2362578207458	0.0	644.8930344787727	670.6021826003546	0.0	717.9359183247299	785.0738313414422	0.0	750.2235075564041	925.9466747106381	0.0	445.58815173819767	668.9190816470232	0.0	396.60866492417796	818.4568063918915	0.0	400.8881450197584	830.6223069094576	0.0
97	3.242390289449113	550.798553417492	923.7238461477588	0.0	606.2045684786502	927.4591195209697	0.0	601.0826197068889	1177.1562862638586	0.0	585.8638906825805	1384.5722068369432	0.0	570.2474518357687	1417.6688694074662	0.0	605.1112981778793	1425.797897712899	0.0	580.8149372529194	1419.4497504843578	0.0	495.51135670339556	924.0400521462127	0.0	492.89332726875585	1128.342433120051	0.0	498.02717300171975	1126.715620123507	0.0	500.6176635154895	1186.6307241446796	0.0	472.8439112568315	1198.2577663164404	0.0	504.60813354975824	1119.593509556231	0.0	552.0001080210496	625.250964740329	0.0	562.3644179833103	506.73062572446116	0.0	559.6733205932499	574.2868220062982	0.0	645.8875986338077	670.4436443670662	0.0	719.7897615770243	784.8545296808607	0.0	750.050446075976	927.5744373198963	0.0	448.43909031260796	668.1875492169123	0.0	399.70362353812743	818.4214010442593	0.0	403.3207498962237	832.0539681134848	0.0
98	3.275816993464052	551.9865583744033	922.7700053450669	0.0	607.0534589904626	927.8465044307349	0.0	600.806782084545	1176.7619245745761	0.0	585.1922834316553	1385.046772096407	0.0	571.5332164655287	1416.834574005122	0.0	608.0086732618804	1425.788761707442	0.0	580.1499519457743	1420.2346641793013	0.0	497.34069507889484	923.9180654075873	0.0	494.14229859664823	1123.0280660622439	0.0	497.71227782595383	1126.1276208097413	0.0	499.7505829141394	1187.795602583168	0.0	472.1582121770793	1192.3161490898515	0.0	504.42015693585654	1117.0870024316423	0.0	553.809847376253	626.1186887863097	0.0	564.3761614831666	509.1185499260162	0.0	562.3267381818966	574.1860212311478	0.0	648.237257468673	670.2320917752553	0.0	720.9115006432122	786.5122289748693	0.0	748.745802461173	929.7752267542309	0.0	450.80653222433637	667.8781640323921	0.0	402.5396895009071	818.820515665519	0.0	407.5698651385354	832.4608219409984	0.0
99	3.3092436974789914	552.8426686538336	921.5565615083951	0.0	607.6929133577719	928.2684138785332	0.0	600.77565593281	1176.4190574578993	0.0	584.7359196834562	1386.0950631504231	0.0	571.7890492555321	1415.2217866841656	0.0	609.4820347345186	1426.2632684228554	0.0	579.1753779668461	1422.1074120890726	0.0	498.50937587696427	924.4482942148236	0.0	494.7075907142785	1120.862499291995	0.0	497.28538649969227	1125.7883298411468	0.0	496.9504642558733	1175.8051522053647	0.0	470.5193513662711	1183.0410007241333	0.0	501.9996442365111	1113.0359973733114	0.0	554.8854334021842	626.6250302665325	0.0	565.015329876675	509.8261698289337	0.0	563.1760747958673	574.4432138938645	0.0	650.6819748854417	669.5020987078616	0.0	721.2133690823157	789.2977121685715	0.0	745.5799379135007	930.688187366911	0.0	452.92194942184494	667.9702544246	0.0	404.5829948055117	819.0369081520926	0.0	412.2704139781898	829.4231501539451	0.0
